<svg enable-background="new 0 0 1564 450" viewBox="0 0 1564 450" xmlns="http://www.w3.org/2000/svg"><path d="m615.3 399.2c-2.8-2.8-6.5-4.8-9.8-4.8-3 0-5.8 1.6-5.8 4.4 0 2.1 1.3 3.8 5 5.5l3.8 1.8c7.3 3.4 11.7 7.3 11.7 14.2s-5.9 13.7-16 13.7c-7 0-12.2-2.7-16.6-6.9l5.1-6.9c3.4 3.5 7.8 5.5 11.3 5.5 4 0 6.4-2.2 6.4-5 0-3.2-2.8-4.9-7.3-7l-3.2-1.5c-6.2-2.9-10.1-7.1-10.1-12.9 0-8.1 7.3-13 15.4-13 5.3 0 10.8 2.6 15.2 6.5z" fill="#1bacfb"/><path d="m655.5 420.6h-22.5c.5 3.4 3.1 6.1 6.9 6.1 2.5 0 4.9-1.1 6.1-3.1l8.9.9c-2.7 6.5-8.4 9.5-15.1 9.5-9 0-15.8-6.7-15.8-15.9s6.7-15.9 15.7-15.9c8.3 0 15.8 5.4 15.8 18.1zm-22.7-5.8h13.5c-.5-3-3-5.5-6.7-5.5s-6.1 2.3-6.8 5.5z" fill="#1bacfb"/><path d="m667.3 418c0 4.8 3.1 8.2 7.6 8.2 3.2 0 5.5-1.8 6.7-4.6l8.1 2.5c-2 6-7.9 9.8-14.8 9.8-9 0-16.1-6.7-16.1-15.9s7.1-15.9 16.1-15.9c6.9 0 12.8 3.8 14.8 9.8l-8.1 2.4c-1.1-2.8-3.5-4.6-6.7-4.6-4.5.1-7.6 3.6-7.6 8.3z" fill="#1bacfb"/><path d="m692.7 418c0-9.2 7.2-15.9 16.2-15.9s16.2 6.7 16.2 15.9-7.2 15.9-16.2 15.9c-9 .1-16.2-6.6-16.2-15.9zm8.6 0c0 4.7 3.1 8.2 7.6 8.2 4.4 0 7.5-3.6 7.5-8.2 0-4.8-3.1-8.2-7.5-8.2-4.5 0-7.6 3.5-7.6 8.2z" fill="#1bacfb"/><path d="m748 402.1c6.5 0 11.2 4.2 11.2 11.2v19.8h-8.6v-17.6c0-3.8-2.4-5.4-5.1-5.4-2.5 0-4.8 1.4-6.4 3.4v19.6h-8.6v-30.2h8.4v1.2c0 1.1-.1 2.4-.1 2.4 2.3-2.8 5.7-4.4 9.2-4.4z" fill="#1bacfb"/><path d="m788.6 429.3c-1.5 2.5-5.1 4.6-9.4 4.6-8.3 0-14.7-6.7-14.7-15.9s6.3-15.9 14.6-15.9c4.6 0 8.1 2.1 9.6 4.7 0-1-.1-3.5-.1-5.7v-14.1h8.6v46.2h-8.6zm-15.3-11.3c0 4.6 3.2 8.3 7.7 8.3s7.7-3.7 7.7-8.3c0-4.7-3.2-8.2-7.7-8.2s-7.7 3.6-7.7 8.2z" fill="#1bacfb"/><path d="m818.9 433.2v-46.2h9.2v38.3h19.6v7.9z" fill="#1bacfb"/><path d="m881.8 420.6h-22.5c.5 3.4 3.1 6.1 6.9 6.1 2.5 0 4.9-1.1 6.1-3.1l8.9.9c-2.7 6.5-8.4 9.5-15.1 9.5-9 0-15.8-6.7-15.8-15.9s6.7-15.9 15.7-15.9c8.3 0 15.8 5.4 15.8 18.1zm-22.7-5.8h13.5c-.5-3-3-5.5-6.7-5.5s-6.2 2.3-6.8 5.5z" fill="#1bacfb"/><path d="m898.9 423.9 6.9-21h9l-10.8 30.3h-10.6l-10.3-30.2h9.3z" fill="#1bacfb"/><path d="m947.7 420.6h-22.5c.5 3.4 3.1 6.1 6.9 6.1 2.5 0 4.9-1.1 6.1-3.1l8.9.9c-2.7 6.5-8.4 9.5-15.1 9.5-9 0-15.8-6.7-15.8-15.9s6.7-15.9 15.7-15.9c8.3 0 15.8 5.4 15.8 18.1zm-22.7-5.8h13.5c-.5-3-3-5.5-6.7-5.5s-6.1 2.3-6.8 5.5z" fill="#1bacfb"/><path d="m961.3 433.2h-8.5v-46.2h8.5z" fill="#1bacfb"/><path d="m998.8 433.2h-15.8v-46.2h15.8c15.1 0 24 9.4 24 23.1s-8.8 23.1-24 23.1zm-.3-38.4h-6.3v30.6h6.3c8.4 0 14.9-5 14.9-15.3s-6.4-15.3-14.9-15.3z" fill="#1bacfb"/><path d="m1026.4 418c0-9.2 7.2-15.9 16.2-15.9s16.2 6.7 16.2 15.9-7.2 15.9-16.2 15.9c-9 .1-16.2-6.6-16.2-15.9zm8.5 0c0 4.7 3.1 8.2 7.6 8.2 4.4 0 7.5-3.6 7.5-8.2 0-4.8-3.1-8.2-7.5-8.2-4.5 0-7.6 3.5-7.6 8.2z" fill="#1bacfb"/><path d="m1103.9 415.4c0-3.7-2.4-5.3-5-5.3-2.4 0-4.6 1.4-6.3 3.4v19.6h-8.6v-17.8c0-3.6-2.3-5.3-5-5.3-2.4 0-4.6 1.4-6.3 3.4v19.6h-8.6v-30.2h8.4v1.2c0 1.1-.1 2.4-.1 2.4 2.2-2.8 5.6-4.4 9-4.4 4.5 0 8 1.9 9.7 5.5 2.5-3.5 5.9-5.5 10.2-5.5 6.5 0 11.2 4.2 11.2 11.2v19.8h-8.6z" fill="#1bacfb"/><path d="m1136.3 413c0-2.2-1.7-3.6-5-3.6-3 0-6.9 1.5-9.1 2.8l-3.4-6.5s5.6-3.7 12.9-3.7c6.9 0 13.1 3.2 13.1 11.2v19.9h-8.6v-2.8c-1.6 2.4-5 3.6-8.4 3.6-6.4 0-10.6-4.6-10.6-9.5 0-5.7 4.2-9.3 11-9.3h5.9c1.5 0 2.1-.7 2.1-1.8v-.3zm0 9.3v-2.2c-.5.5-1.5.7-2.6.7h-3.2c-2.7 0-4.3 1.2-4.3 3.3 0 2 1.7 3.6 4.3 3.6 3 0 5.8-1.6 5.8-5.4z" fill="#1bacfb"/><path d="m1162.3 433.2h-8.6v-23h-4.2v-7.3h12.8zm-4.7-46.2c3.1 0 5.5 2.5 5.5 5.5 0 3.1-2.4 5.5-5.5 5.5-3 0-5.5-2.4-5.5-5.5.1-3 2.5-5.5 5.5-5.5z" fill="#1bacfb"/><path d="m1187.2 402.1c6.5 0 11.2 4.2 11.2 11.2v19.8h-8.6v-17.6c0-3.8-2.4-5.4-5.1-5.4-2.5 0-4.8 1.4-6.4 3.4v19.6h-8.6v-30.2h8.4v1.2c0 1.1-.1 2.4-.1 2.4 2.3-2.8 5.7-4.4 9.2-4.4z" fill="#1bacfb"/><g fill="#fff"><path d="m54.7 209.8c10.1 0 17.3 6.4 17.3 17.3v30.6h-13.2v-27.2c0-5.9-3.8-8.4-8-8.4-3.9 0-7.3 2.1-9.9 5.3v30.3h-13.2v-71.4h13.1v26.5c0 1.6-.2 3.7-.2 3.7 3.5-4.4 8.8-6.7 14.1-6.7z"/><path d="m99.7 193.2v17.8h10.1v11.2h-10.1v21.1c0 3 2.3 3.4 4.4 3.4 3.4 0 6.1-.3 6.1-.3v11.3s-6.4.6-10.3.6c-6.6 0-13.5-1.1-13.5-10.5v-25.6h-7.3v-11.2h7.3v-17.7h13.3z"/><path d="m135.7 193.2v17.8h10.1v11.2h-10.1v21.1c0 3 2.3 3.4 4.4 3.4 3.4 0 6.1-.3 6.1-.3v11.3s-6.4.6-10.3.6c-6.6 0-13.5-1.1-13.5-10.5v-25.6h-7.3v-11.2h7.3v-17.7h13.3z"/><path d="m168.3 275.6h-13.3v-64.6h13.3v2.2c0 2.2-.2 3.3-.2 3.8 2.2-4 7.8-7.2 14.8-7.2 12.9 0 22.6 10.3 22.6 24.6s-9.9 24.6-22.7 24.6c-6.6 0-12.1-3.2-14.5-7.1zm-.3-41.2c0 7.1 4.9 12.9 11.9 12.9s11.9-5.7 11.9-12.9-4.9-12.8-11.9-12.8-11.9 5.5-11.9 12.8z"/><path d="m241.6 225.3c-3.8-3.7-8.5-4.8-11.5-4.8-3.5 0-4.7 1.7-4.7 3.2 0 1.6 1 2.8 3.5 3.6l7.8 2.4c9.6 3.2 12.9 8.4 12.9 14.5 0 6.8-5.8 14.8-18.6 14.8-10.3 0-16.7-4-20.6-7.3l7-9.2c3.4 3.2 9.4 5.8 13.8 5.8 3.2 0 5.1-1.6 5.1-3.5 0-2.3-1.5-3.4-5.3-4.5l-8-2.3c-7.5-2.4-10.8-7.5-10.8-13.7 0-7.7 6.9-14.5 18.2-14.5 6.1 0 13.4 1.8 18.9 6.9z"/><path d="m267 211c5 0 9 4 9 9 0 4.9-4 8.9-9 8.9-4.9 0-8.9-4-8.9-8.9 0-5 4-9 8.9-9zm0 30.2c5 0 9 4 9 8.9 0 5-4 8.9-9 8.9-4.9 0-8.9-3.9-8.9-8.9 0-4.9 4-8.9 8.9-8.9z"/><path d="m309.1 186.3h12.2l-24.2 71.4h-12.1z"/><path d="m343.6 186.3h12.2l-24.2 71.4h-12.2z"/><path d="m411.4 241.4 7.1-30.4h13.7l-12.1 46.7h-15.7l-8.2-29.2-8.4 29.2h-15.6l-11.4-46.7h14.3l6.2 30 8.7-30h13z"/><path d="m486.6 241.4 7.1-30.4h13.7l-12.1 46.7h-15.7l-8.2-29.2-8.4 29.2h-15.6l-11.4-46.7h14.3l6.2 30 8.7-30h13z"/><path d="m561.8 241.4 7.1-30.4h13.7l-12.1 46.7h-15.7l-8.2-29.2-8.4 29.2h-15.6l-11.4-46.7h14.3l6.2 30 8.7-30h13z"/><path d="m596 241.2c4.9 0 8.9 4 8.9 8.9s-4 8.9-8.9 8.9-8.9-4-8.9-8.9 4-8.9 8.9-8.9z"/><path d="m625.6 234.4c0 7.3 4.8 12.8 11.7 12.8 4.9 0 8.6-2.8 10.3-7.1l12.4 3.9c-3.1 9.3-12.2 15.1-22.8 15.1-13.9 0-24.9-10.3-24.9-24.6s11-24.6 24.9-24.6c10.6 0 19.8 5.9 22.8 15.2l-12.4 3.8c-1.7-4.3-5.4-7.1-10.3-7.1-6.9-.2-11.7 5.2-11.7 12.6z"/><path d="m665 234.4c0-14.3 11.1-24.6 25-24.6s25 10.3 25 24.6-11.1 24.6-25 24.6c-13.9-.1-25-10.4-25-24.6zm13.3 0c0 7.2 4.8 12.8 11.7 12.8 6.8 0 11.6-5.5 11.6-12.8s-4.8-12.8-11.6-12.8c-6.9 0-11.7 5.4-11.7 12.8z"/><path d="m757.8 251.8c-2.3 3.9-7.9 7.1-14.6 7.1-12.9 0-22.6-10.3-22.6-24.6s9.7-24.6 22.5-24.6c7.1 0 12.5 3.3 14.9 7.2 0-1.5-.2-5.4-.2-8.9v-21.8h13.3v71.4h-13.3zm-23.5-17.4c0 7.1 4.9 12.9 11.9 12.9s11.9-5.7 11.9-12.9-4.9-12.8-11.9-12.8-11.9 5.5-11.9 12.8z"/><path d="m828.3 238.2h-34.8c.7 5.2 4.8 9.4 10.7 9.4 3.9 0 7.5-1.6 9.4-4.8l13.8 1.4c-4.2 10-13 14.7-23.4 14.7-14 0-24.5-10.3-24.5-24.6s10.3-24.6 24.3-24.6c12.9 0 24.5 8.4 24.5 27.9zm-35.1-8.8h20.9c-.7-4.7-4.7-8.6-10.3-8.6s-9.6 3.6-10.6 8.6z"/><path d="m846.5 234.4c0 7.3 4.8 12.8 11.7 12.8 4.9 0 8.6-2.8 10.3-7.1l12.4 3.9c-3.1 9.3-12.2 15.1-22.8 15.1-13.9 0-24.9-10.3-24.9-24.6s11-24.6 24.9-24.6c10.6 0 19.8 5.9 22.8 15.2l-12.4 3.8c-1.7-4.3-5.4-7.1-10.3-7.1-6.9-.2-11.7 5.2-11.7 12.6z"/><path d="m914.7 226.6c0-3.4-2.7-5.5-7.8-5.5-4.7 0-10.6 2.3-14.1 4.4l-5.2-10s8.7-5.7 20-5.7c10.6 0 20.3 4.9 20.3 17.2v30.7h-13.3v-4.4c-2.4 3.7-7.8 5.6-13.1 5.6-9.9 0-16.3-7-16.3-14.7 0-8.9 6.5-14.4 16.9-14.4h9.2c2.2 0 3.3-1 3.3-2.8v-.4zm0 14.4v-3.4c-.8.8-2.2 1-4.1 1h-5c-4.2 0-6.6 1.8-6.6 5.1 0 3.2 2.5 5.5 6.6 5.5 4.8 0 9.1-2.4 9.1-8.2z"/><path d="m973.2 251.8c-2.3 3.9-7.9 7.1-14.6 7.1-12.9 0-22.6-10.3-22.6-24.6s9.7-24.6 22.5-24.6c7.1 0 12.5 3.3 14.9 7.2 0-1.5-.2-5.4-.2-8.9v-21.8h13.3v71.4h-13.3zm-23.5-17.4c0 7.1 4.9 12.9 11.9 12.9s11.9-5.7 11.9-12.9-4.9-12.8-11.9-12.8-11.9 5.5-11.9 12.8z"/><path d="m1043.7 238.2h-34.8c.7 5.2 4.8 9.4 10.7 9.4 3.9 0 7.5-1.6 9.4-4.8l13.8 1.4c-4.2 10-13 14.7-23.4 14.7-14 0-24.5-10.3-24.5-24.6s10.3-24.6 24.3-24.6c12.9 0 24.5 8.4 24.5 27.9zm-35.1-8.8h20.9c-.7-4.7-4.7-8.6-10.3-8.6s-9.5 3.6-10.6 8.6z"/><path d="m1113 230.3c0-5.7-3.7-8.2-7.8-8.2-3.8 0-7.1 2.1-9.7 5.3v30.3h-13.3v-27.4c0-5.6-3.6-8.2-7.8-8.2-3.8 0-7.1 2.1-9.7 5.3v30.3h-13.3v-46.7h13v1.8c0 1.6-.2 3.7-.2 3.7 3.5-4.3 8.7-6.7 14-6.7 6.9 0 12.3 3 15 8.5 3.9-5.4 9.2-8.5 15.7-8.5 10.1 0 17.2 6.4 17.2 17.3v30.6h-13.1z"/><path d="m1151.2 257.7h-3.4l-16-46.7h14.8l9.9 33.3 10-33.3h14.4l-18.7 54.1c-2.3 6.8-6 10.5-14.6 10.5h-9.2v-11.1h6.5c2.7 0 4.3-1 5.2-3.7z"/><path d="m1192.5 241.2c4.9 0 8.9 4 8.9 8.9s-4 8.9-8.9 8.9-8.9-4-8.9-8.9c.1-4.9 4-8.9 8.9-8.9z"/><path d="m1222.2 234.4c0 7.3 4.8 12.8 11.7 12.8 4.9 0 8.6-2.8 10.3-7.1l12.4 3.9c-3.1 9.3-12.2 15.1-22.8 15.1-13.9 0-24.9-10.3-24.9-24.6s11-24.6 24.9-24.6c10.6 0 19.8 5.9 22.8 15.2l-12.4 3.8c-1.7-4.3-5.4-7.1-10.3-7.1-6.9-.2-11.7 5.2-11.7 12.6z"/><path d="m1261.6 234.4c0-14.3 11.1-24.6 25-24.6s25 10.3 25 24.6-11.1 24.6-25 24.6c-13.9-.1-25-10.4-25-24.6zm13.3 0c0 7.2 4.8 12.8 11.7 12.8 6.8 0 11.6-5.5 11.6-12.8s-4.8-12.8-11.6-12.8c-7 0-11.7 5.4-11.7 12.8z"/><path d="m1381.4 230.3c0-5.7-3.7-8.2-7.8-8.2-3.8 0-7.1 2.1-9.7 5.3v30.3h-13.3v-27.4c0-5.6-3.6-8.2-7.8-8.2-3.8 0-7.1 2.1-9.7 5.3v30.3h-13.1v-46.7h13v1.8c0 1.6-.2 3.7-.2 3.7 3.5-4.3 8.7-6.7 14-6.7 6.9 0 12.3 3 15 8.5 3.9-5.4 9.2-8.5 15.7-8.5 10.1 0 17.2 6.4 17.2 17.3v30.6h-13.3z"/></g><g fill="#1bacfb"><path d="m31.5 432.1h-8.8v-44.8h15.2c10.6 0 16.1 6.6 16.1 14.7s-5.6 14.9-16.1 14.9h-6.3v15.2zm0-37.1v14.3h5c4.9 0 8.4-2.3 8.4-7.3s-3.5-7-8.4-7z"/><path d="m76.3 411h-3.5c-4.2 0-6.1 2-6.1 7.1v14h-8.3v-29.3h8.1v4.7c1.2-3.1 4-5.1 7.6-5.1.8 0 1.5.1 2.3.3v8.3z"/><path d="m78.8 417.5c0-9 7-15.4 15.7-15.4s15.7 6.5 15.7 15.4c0 9-7 15.4-15.7 15.4s-15.7-6.5-15.7-15.4zm8.3 0c0 4.5 3 8 7.4 8 4.3 0 7.3-3.5 7.3-8 0-4.6-3-8-7.3-8-4.4 0-7.4 3.3-7.4 8z"/><path d="m126 391.7v11.1h6.3v7h-6.3v13.2c0 1.9 1.5 2.1 2.8 2.1 2.1 0 3.8-.2 3.8-.2v7.1s-4 .4-6.5.4c-4.2 0-8.4-.7-8.4-6.6v-16.1h-4.7v-7h4.6v-11.1h8.4z"/><path d="m136.2 417.5c0-9 7-15.4 15.7-15.4s15.7 6.5 15.7 15.4c0 9-7 15.4-15.7 15.4s-15.7-6.5-15.7-15.4zm8.3 0c0 4.5 3 8 7.4 8 4.3 0 7.3-3.5 7.3-8 0-4.6-3-8-7.3-8-4.4 0-7.4 3.3-7.4 8z"/><path d="m179.3 417.5c0 4.6 3 8 7.4 8 3.1 0 5.4-1.7 6.5-4.5l7.8 2.4c-1.9 5.8-7.7 9.5-14.3 9.5-8.7 0-15.6-6.5-15.6-15.4 0-9 6.9-15.4 15.6-15.4 6.7 0 12.4 3.7 14.3 9.5l-7.8 2.4c-1.1-2.7-3.4-4.5-6.5-4.5-4.4 0-7.4 3.3-7.4 8z"/><path d="m204 417.5c0-9 7-15.4 15.7-15.4s15.7 6.5 15.7 15.4c0 9-7 15.4-15.7 15.4s-15.7-6.5-15.7-15.4zm8.4 0c0 4.5 3 8 7.4 8 4.3 0 7.3-3.5 7.3-8 0-4.6-3-8-7.3-8-4.4 0-7.4 3.3-7.4 8z"/><path d="m249 432.1h-8.3v-44.8h8.3z"/><path d="m344.7 33.2c-2.8-2.7-6.3-4.6-9.5-4.6-2.9 0-5.6 1.5-5.6 4.2 0 2 1.3 3.6 4.9 5.3l3.7 1.7c7.1 3.3 11.4 7 11.4 13.8 0 6.7-5.7 13.2-15.6 13.2-6.8 0-11.8-2.6-16.1-6.7l4.9-6.7c3.3 3.4 7.6 5.3 10.9 5.3 3.8 0 6.2-2.1 6.2-4.9 0-3.1-2.8-4.8-7-6.8l-3.1-1.5c-6-2.8-9.8-6.9-9.8-12.5 0-7.9 7-12.6 15-12.6 5.2 0 10.5 2.6 14.8 6.3z"/><path d="m354.3 55.4v-18.6h8.3v17c0 4 2.7 5.6 5.6 5.6 3 0 5.6-1.6 5.6-5.6v-17h8.3v18.6c0 6.1-4.9 11.5-13.9 11.5-8.9 0-13.9-5.4-13.9-11.5z"/><path d="m397.2 66.1h-8.3v-44.8h8.3v14.5c0 1.9-.1 4-.1 4.8 1.4-2.5 4.9-4.5 9.3-4.5 8.1 0 14.2 6.5 14.2 15.4 0 9-6.2 15.4-14.3 15.4-4.2 0-7.6-2-9.1-4.5zm-.2-14.6c0 4.5 3.1 8.1 7.5 8.1s7.5-3.6 7.5-8.1-3.1-8-7.5-8-7.5 3.4-7.5 8z"/><path d="m423.6 45.4h13.4v7h-13.4z"/><path d="m458.4 66.1h-15.4v-44.8h15.4c14.7 0 23.2 9.1 23.2 22.4s-8.6 22.4-23.2 22.4zm-.3-37.2h-6.1v29.6h6.1c8.2 0 14.5-4.8 14.5-14.8-.1-9.9-6.4-14.8-14.5-14.8z"/><path d="m485.1 51.5c0-9 7-15.4 15.7-15.4s15.7 6.5 15.7 15.4c0 9-7 15.4-15.7 15.4s-15.7-6.5-15.7-15.4zm8.3 0c0 4.5 3 8 7.4 8 4.3 0 7.3-3.5 7.3-8 0-4.6-3-8-7.3-8-4.4 0-7.4 3.3-7.4 8z"/><path d="m560.3 48.9c0-3.6-2.3-5.1-4.9-5.1-2.4 0-4.5 1.3-6.1 3.3v19h-8.3v-17.2c0-3.5-2.2-5.1-4.9-5.1-2.4 0-4.5 1.3-6.1 3.3v19h-8.3v-29.3h8.1v1.2c0 1-.1 2.3-.1 2.3 2.2-2.7 5.4-4.2 8.8-4.2 4.4 0 7.7 1.9 9.4 5.3 2.4-3.4 5.8-5.3 9.9-5.3 6.3 0 10.8 4 10.8 10.9v19.2h-8.3z"/><path d="m591.7 46.6c0-2.1-1.7-3.5-4.9-3.5-2.9 0-6.7 1.5-8.8 2.8l-3.3-6.3s5.4-3.6 12.5-3.6c6.7 0 12.7 3.1 12.7 10.8v19.3h-8.3v-2.8c-1.5 2.3-4.9 3.5-8.2 3.5-6.2 0-10.2-4.4-10.2-9.2 0-5.6 4.1-9 10.6-9h5.8c1.4 0 2-.6 2-1.7v-.3zm0 9v-2.1c-.5.5-1.4.6-2.6.6h-3.1c-2.6 0-4.2 1.2-4.2 3.2s1.6 3.5 4.2 3.5c3 0 5.7-1.5 5.7-5.2z"/><path d="m616.9 66.1h-8.3v-22.3h-4.1v-7h12.4zm-4.5-44.8c3 0 5.4 2.4 5.4 5.4s-2.4 5.3-5.4 5.3c-2.9 0-5.3-2.3-5.3-5.3-.1-3 2.3-5.4 5.3-5.4z"/><path d="m641 36c6.3 0 10.9 4 10.9 10.9v19.2h-8.3v-17.1c0-3.7-2.4-5.2-5-5.2-2.4 0-4.6 1.3-6.2 3.3v19h-8.3v-29.3h8.1v1.2c0 1-.1 2.3-.1 2.3 2.2-2.8 5.5-4.3 8.9-4.3z"/><path d="m1107.5 24.3v7.9h-13.4v36.9h-8.8v-36.9h-13.4v-7.9z"/><path d="m1103.4 54.5c0-9 7-15.4 15.7-15.4s15.7 6.5 15.7 15.4c0 9-7 15.4-15.7 15.4s-15.7-6.5-15.7-15.4zm8.4 0c0 4.5 3 8 7.4 8 4.3 0 7.3-3.5 7.3-8 0-4.6-3-8-7.3-8-4.4 0-7.4 3.3-7.4 8z"/><path d="m1148.4 80.3h-8.3v-40.5h8.3v1.4c0 1.4-.1 2-.1 2.4 1.4-2.5 4.9-4.5 9.3-4.5 8.1 0 14.2 6.5 14.2 15.4 0 9-6.2 15.4-14.3 15.4-4.2 0-7.6-2-9.1-4.5zm-.2-25.8c0 4.5 3.1 8.1 7.5 8.1s7.5-3.6 7.5-8.1-3.1-8-7.5-8-7.5 3.4-7.5 8z"/><path d="m1174.9 48.4h13.4v7h-13.4z"/><path d="m1201.4 69.1h-8.3v-44.8h8.3z"/><path d="m1237.3 56.9h-21.8c.4 3.3 3 5.9 6.7 5.9 2.4 0 4.7-1 5.9-3l8.6.9c-2.6 6.3-8.1 9.2-14.7 9.2-8.8 0-15.4-6.5-15.4-15.4 0-9 6.5-15.4 15.2-15.4 8.1 0 15.4 5.2 15.4 17.5v.3zm-22-5.6h13.1c-.4-2.9-2.9-5.4-6.5-5.4s-5.9 2.3-6.6 5.4z"/><path d="m1253.9 60.1 6.7-20.4h8.8l-10.4 29.3h-10.3l-10-29.3h9z"/><path d="m1301.3 56.9h-21.8c.4 3.3 3 5.9 6.7 5.9 2.4 0 4.7-1 5.9-3l8.6.9c-2.6 6.3-8.1 9.2-14.7 9.2-8.8 0-15.4-6.5-15.4-15.4 0-9 6.5-15.4 15.2-15.4 8.1 0 15.4 5.2 15.4 17.5v.3zm-22-5.6h13.1c-.4-2.9-2.9-5.4-6.5-5.4s-6 2.3-6.6 5.4z"/><path d="m1314.5 69.1h-8.3v-44.8h8.3z"/><path d="m1350.9 69.1h-15.4v-44.8h15.4c14.7 0 23.2 9.1 23.2 22.4s-8.6 22.4-23.2 22.4zm-.4-37.2h-6.1v29.6h6.1c8.2 0 14.5-4.8 14.5-14.8 0-9.9-6.3-14.8-14.5-14.8z"/><path d="m1377.6 54.5c0-9 7-15.4 15.7-15.4s15.7 6.5 15.7 15.4c0 9-7 15.4-15.7 15.4-8.8 0-15.7-6.5-15.7-15.4zm8.3 0c0 4.5 3 8 7.4 8 4.3 0 7.3-3.5 7.3-8 0-4.6-3-8-7.3-8-4.4 0-7.4 3.3-7.4 8z"/><path d="m1452.8 51.9c0-3.6-2.3-5.1-4.9-5.1-2.4 0-4.5 1.3-6.1 3.3v19h-8.3v-17.2c0-3.5-2.2-5.1-4.9-5.1-2.4 0-4.5 1.3-6.1 3.3v19h-8.3v-29.3h8.1v1.2c0 1-.1 2.3-.1 2.3 2.2-2.7 5.4-4.2 8.8-4.2 4.4 0 7.7 1.9 9.4 5.3 2.4-3.4 5.8-5.3 9.9-5.3 6.3 0 10.8 4 10.8 10.9v19.2h-8.3z"/><path d="m1484.2 49.6c0-2.1-1.7-3.5-4.9-3.5-2.9 0-6.7 1.5-8.8 2.8l-3.3-6.3s5.4-3.6 12.5-3.6c6.7 0 12.7 3.1 12.7 10.8v19.3h-8.3v-2.8c-1.5 2.3-4.9 3.5-8.2 3.5-6.2 0-10.2-4.4-10.2-9.2 0-5.6 4.1-9 10.6-9h5.8c1.4 0 2-.6 2-1.7v-.3zm0 9v-2.1c-.5.5-1.4.6-2.6.6h-3.1c-2.6 0-4.2 1.2-4.2 3.2s1.6 3.5 4.2 3.5c3 0 5.7-1.5 5.7-5.2z"/><path d="m1509.4 69.1h-8.3v-22.3h-4.1v-7h12.4zm-4.5-44.8c3 0 5.4 2.4 5.4 5.4s-2.4 5.3-5.4 5.3c-2.9 0-5.3-2.3-5.3-5.3-.1-3 2.3-5.4 5.3-5.4z"/><path d="m1533.5 39c6.3 0 10.9 4 10.9 10.9v19.2h-8.3v-17.1c0-3.7-2.4-5.2-5-5.2-2.4 0-4.6 1.3-6.2 3.3v19h-8.3v-29.3h8.1v1.2c0 1-.1 2.3-.1 2.3 2.2-2.8 5.5-4.3 8.9-4.3z"/></g><path d="m25 285.9v51.1h221.8v-51" fill="none" stroke="#1bacfb" stroke-miterlimit="10" stroke-width="6"/><path d="m136 337v31" fill="none" stroke="#1bacfb" stroke-miterlimit="10" stroke-width="6"/><path d="m1400 180v-51.1h-202v51" fill="none" stroke="#1bacfb" stroke-miterlimit="10" stroke-width="6"/><path d="m1302.8 128.9v-31" fill="none" stroke="#1bacfb" stroke-miterlimit="10" stroke-width="6"/><path d="m592 180v-51.1h-228v51" fill="none" stroke="#1bacfb" stroke-miterlimit="10" stroke-width="6"/><path d="m481.8 128.9v-31" fill="none" stroke="#1bacfb" stroke-miterlimit="10" stroke-width="6"/><path d="m609 285.9v51.1h565v-51" fill="none" stroke="#1bacfb" stroke-miterlimit="10" stroke-width="6"/><path d="m890 337v31" fill="none" stroke="#1bacfb" stroke-miterlimit="10" stroke-width="6"/></svg>