<svg xmlns="http://www.w3.org/2000/svg" width="117.021" height="93.708" viewBox="0 0 117.021 93.708">
    <path data-name="Path 1" d="M117.021 106.745v-.045a5.043 5.043 0 0 0-1.68-3.709L103.8 92.683a3.429 3.429 0 1 0-4.572 5.117l6.183 5.519H46.494a23.417 23.417 0 1 0 0 6.857h58.916l-6.182 5.52a3.428 3.428 0 1 0 4.567 5.114l11.546-10.31a5.042 5.042 0 0 0 1.68-3.709v-.046zm-93.648 16.561a16.561 16.561 0 1 1 16.16-19.989H28.527a3.428 3.428 0 1 0 0 6.857h11.005a16.555 16.555 0 0 1-16.159 13.132zm0 0" transform="translate(0 -64.283)" style="fill:#00e2b2"/>
    <path data-name="Path 2" d="M300.938 53.421a3.428 3.428 0 0 0 3.428 3.428h37.3a3.428 3.428 0 0 0 0-6.857h-37.3a3.428 3.428 0 0 0-3.428 3.429zm0 0" transform="translate(-232.156 -38.566)" style="fill:#00e2b2"/>
    <path data-name="Path 3" d="M195.792 6.857h28.916a3.428 3.428 0 1 0 0-6.857h-28.916a3.428 3.428 0 1 0 0 6.857zm0 0" transform="translate(-148.397)" style="fill:#00e2b2"/>
    <path data-name="Path 4" d="M372.03 6.857h5.348a3.428 3.428 0 1 0 0-6.857h-5.348a3.428 3.428 0 0 0 0 6.857zm0 0" transform="translate(-284.355)" style="fill:#00e2b2"/>
    <path data-name="Path 5" d="M202.745 78.984a3.428 3.428 0 0 0 0 6.857h5.348a3.428 3.428 0 1 0 0-6.857zm0 0" transform="translate(-153.761 -60.932)" style="fill:#00e2b2"/>
    <path data-name="Path 6" d="M228.128 235.818a3.428 3.428 0 1 0 0-6.857h-5.348a3.428 3.428 0 1 0 0 6.857zm0 0" transform="translate(-169.217 -176.63)" style="fill:#00e2b2"/>
    <path data-name="Path 7" d="M120.545 351H83.323a3.428 3.428 0 1 0 0 6.857h37.222a3.428 3.428 0 0 0 0-6.857zm0 0" transform="translate(-61.634 -270.78)" style="fill:#00e2b2"/>
    <path data-name="Path 8" d="M257.48 301.012h-28.915a3.428 3.428 0 1 0 0 6.857h28.915a3.428 3.428 0 1 0 0-6.857zm0 0" transform="translate(-173.68 -232.213)" style="fill:#00e2b2"/>
    <path data-name="Path 9" d="M160.792 307.868a3.428 3.428 0 1 0 0-6.857h-5.348a3.428 3.428 0 1 0 0 6.857zm0 0" transform="translate(-117.271 -232.213)" style="fill:#00e2b2"/>
    <path data-name="Path 10" d="M330.077 380h-5.348a3.428 3.428 0 0 0 0 6.857h5.348a3.428 3.428 0 0 0 0-6.857zm0 0" transform="translate(-247.865 -293.148)" style="fill:#00e2b2"/>
</svg>
