<svg xmlns="http://www.w3.org/2000/svg" width="108.808" height="108.808" viewBox="0 0 108.808 108.808">
    <path data-name="Path 11" d="M0 0h108.808v108.808H0z" style="fill:none"/>
    <path data-name="Path 12" d="M18.135 13.067H99.74V4H18.135a9.094 9.094 0 0 0-9.067 9.067v49.87H0v13.6h63.471v-13.6H18.135zm86.139 9.067h-27.2a4.547 4.547 0 0 0-4.534 4.534V72a4.547 4.547 0 0 0 4.534 4.534h27.2A4.547 4.547 0 0 0 108.808 72V26.668a4.547 4.547 0 0 0-4.534-4.533zm-4.534 40.8H81.606V31.2H99.74z" transform="translate(0 14.135)" style="fill:#00e2b2"/>
</svg>
