<svg xmlns="http://www.w3.org/2000/svg" width="106" height="106" viewBox="0 0 106 106">
    <path data-name="Path 13" d="M0 0h106v106H0z" style="fill:none"/>
    <path data-name="Path 14" d="M22.667 85.917a4.426 4.426 0 0 0 4.417 4.417H44.75a4.426 4.426 0 0 0 4.417-4.417V81.5h-26.5zM35.917 2A30.726 30.726 0 0 0 5 32.917a30.152 30.152 0 0 0 13.25 25.175V68.25a4.426 4.426 0 0 0 4.417 4.417h26.5a4.426 4.426 0 0 0 4.417-4.417V58.092a31.376 31.376 0 0 0 13.25-25.175A30.726 30.726 0 0 0 35.917 2z" transform="translate(17.083 6.833)" style="fill:#00e2b2"/>
</svg>
