<svg xmlns="http://www.w3.org/2000/svg" width="161.787" height="172.419" viewBox="0 0 161.787 172.419">
    <g data-name="Group 151">
        <path data-name="Path 470" d="M285.073 92.8a57.569 57.569 0 0 0-57.5-57.5 55.92 55.92 0 0 0-4.615.207h-99.672v172.032H223.3c1.415.106 2.836.175 4.277.175a57.493 57.493 0 0 0 49.8-86.238 57.064 57.064 0 0 0 7.696-28.676zm-6.355 0a51.2 51.2 0 0 1-47.2 50.974V41.819a51.209 51.209 0 0 1 47.2 50.981zm-88.3 43.836a57.269 57.269 0 0 0 34.738 13.6v42.89zm-60.779-86.72 43.748 71.154h-43.746zm95.517-8.058v102.021a51.133 51.133 0 0 1-1.976-102.022zM170.071 92.8a57.415 57.415 0 0 0 1.572 13.287l-39.5-64.229h68.806A57.541 57.541 0 0 0 170.071 92.8zm-40.43 108.384v-73.759H177.3l45.307 73.69a51.212 51.212 0 0 1-46.177-50.9h-6.355A57.544 57.544 0 0 0 201 201.183zm149.077-50.967a51.2 51.2 0 0 1-47.2 50.974v-51.044a57.484 57.484 0 0 0 41.882-22.666 51.2 51.2 0 0 1 5.318 22.735z" transform="translate(-123.286 -35.295)" style="fill:#fff"/>
    </g>
</svg>
