<svg xmlns="http://www.w3.org/2000/svg" width="119.615" height="119.615" viewBox="0 0 119.615 119.615">
    <path data-name="Path 16" d="M0 0h119.615v119.615H0z" style="fill:none"/>
    <path data-name="Path 17" d="m93.479 26.626-6.13 9.22a39.872 39.872 0 0 1-1.1 37.778H17.174a39.872 39.872 0 0 1 52.382-55.57l9.22-6.13A49.84 49.84 0 0 0 8.6 78.609a9.968 9.968 0 0 0 8.572 4.984H86.2a9.968 9.968 0 0 0 8.672-4.984 49.84 49.84 0 0 0-1.346-52.033zm-48.793 34.09a9.968 9.968 0 0 0 14.1 0L87 18.4 44.686 46.612a9.968 9.968 0 0 0 0 14.1z" transform="translate(8.094 16.087)" style="fill:#00e2b2"/>
</svg>
