<svg xmlns="http://www.w3.org/2000/svg" width="269.839" height="287.571" viewBox="0 0 269.839 287.571">
    <g data-name="Group 152">
        <path data-name="Path 471" d="M393.125 131.2a96.017 96.017 0 0 0-95.9-95.909c-2.6 0-5.148.136-7.7.345H123.286v286.938h166.807c2.36.177 4.731.292 7.133.292a95.891 95.891 0 0 0 83.054-143.832 95.175 95.175 0 0 0 12.845-47.834zm-10.6 0a85.4 85.4 0 0 1-78.73 85.017V46.177a85.41 85.41 0 0 1 78.73 85.023zm-147.268 73.116A95.517 95.517 0 0 0 293.195 227v71.535zM133.886 59.68l72.966 118.675h-72.966zm159.309-13.44V216.4a85.284 85.284 0 0 1-3.3-170.16zm-91.878 84.96a95.76 95.76 0 0 0 2.621 22.16L138.063 46.239h114.759a95.971 95.971 0 0 0-51.505 84.961zm-67.431 180.77V188.955h79.482l75.566 122.9a85.415 85.415 0 0 1-77.018-84.892h-10.6a95.976 95.976 0 0 0 51.589 85.007zm248.639-85.007a85.393 85.393 0 0 1-78.73 85.017v-85.127a95.876 95.876 0 0 0 69.854-37.8 85.392 85.392 0 0 1 8.876 37.914z" transform="translate(-123.286 -35.295)" style="fill:#fff"/>
    </g>
</svg>
